<svg width="18" height="18" viewBox="0 0 18 18" fill="none" xmlns="http://www.w3.org/2000/svg">
<path d="M9.01502 2.18262C6.53252 2.18262 4.51502 4.20012 4.51502 6.68262V8.85012C4.51502 9.30762 4.32002 10.0051 4.08752 10.3951L3.22502 11.8276C2.69252 12.7126 3.06002 13.6951 4.03502 14.0251C7.26752 15.1051 10.755 15.1051 13.9875 14.0251C14.895 13.7251 15.2925 12.6526 14.7975 11.8276L13.935 10.3951C13.71 10.0051 13.515 9.30762 13.515 8.85012V6.68262C13.515 4.20762 11.49 2.18262 9.01502 2.18262Z" stroke="#1B2D5B" stroke-width="1.125" stroke-miterlimit="10" stroke-linecap="round"/>
<path d="M10.4025 2.40008C10.17 2.33258 9.92999 2.28008 9.68249 2.25008C8.96249 2.16008 8.27249 2.21258 7.62749 2.40008C7.84499 1.84508 8.38499 1.45508 9.01499 1.45508C9.64499 1.45508 10.185 1.84508 10.4025 2.40008Z" stroke="#1B2D5B" stroke-width="1.125" stroke-miterlimit="10" stroke-linecap="round" stroke-linejoin="round"/>
<path d="M11.265 14.2949C11.265 15.5324 10.2525 16.5449 9.01501 16.5449C8.40001 16.5449 7.83001 16.2899 7.42501 15.8849C7.02001 15.4799 6.76501 14.9099 6.76501 14.2949" stroke="#1B2D5B" stroke-width="1.125" stroke-miterlimit="10"/>
</svg>
