<svg width="18" height="18" viewBox="0 0 18 18" fill="none" xmlns="http://www.w3.org/2000/svg">
<path d="M15.6825 8.34022C15.6825 12.0077 13.02 15.4427 9.38248 16.4477C9.13498 16.5152 8.86497 16.5152 8.61747 16.4477C4.97997 15.4427 2.31747 12.0077 2.31747 8.34022V5.04771C2.31747 4.43271 2.78249 3.73521 3.35999 3.50271L7.53747 1.79273C8.47497 1.41023 9.53247 1.41023 10.47 1.79273L14.6475 3.50271C15.2175 3.73521 15.69 4.43271 15.69 5.04771L15.6825 8.34022Z" stroke="#464646" stroke-width="1.125" stroke-linecap="round" stroke-linejoin="round"/>
<path d="M9 9.375C9.82843 9.375 10.5 8.70343 10.5 7.875C10.5 7.04657 9.82843 6.375 9 6.375C8.17157 6.375 7.5 7.04657 7.5 7.875C7.5 8.70343 8.17157 9.375 9 9.375Z" stroke="#464646" stroke-width="1.125" stroke-miterlimit="10" stroke-linecap="round" stroke-linejoin="round"/>
<path d="M9 9.375V11.625" stroke="#464646" stroke-width="1.125" stroke-miterlimit="10" stroke-linecap="round" stroke-linejoin="round"/>
</svg>
