<svg width="18" height="18" viewBox="0 0 18 18" fill="none" xmlns="http://www.w3.org/2000/svg">
<path d="M9.3975 15.3151H4.6575C2.2875 15.3151 1.5 13.7401 1.5 12.1576V5.84256C1.5 3.47256 2.2875 2.68506 4.6575 2.68506H9.3975C11.7675 2.68506 12.555 3.47256 12.555 5.84256V12.1576C12.555 14.5276 11.76 15.3151 9.3975 15.3151Z" stroke="#1B2D5B" stroke-width="1.125" stroke-linecap="round" stroke-linejoin="round"/>
<path d="M14.64 12.8251L12.555 11.3626V6.6301L14.64 5.1676C15.66 4.4551 16.5 4.8901 16.5 6.1426V11.8576C16.5 13.1101 15.66 13.5451 14.64 12.8251Z" stroke="#1B2D5B" stroke-width="1.125" stroke-linecap="round" stroke-linejoin="round"/>
<path d="M8.625 8.25C9.24632 8.25 9.75 7.74632 9.75 7.125C9.75 6.50368 9.24632 6 8.625 6C8.00368 6 7.5 6.50368 7.5 7.125C7.5 7.74632 8.00368 8.25 8.625 8.25Z" stroke="#1B2D5B" stroke-width="1.125" stroke-linecap="round" stroke-linejoin="round"/>
</svg>
